<svg xmlns="http://www.w3.org/2000/svg" xmlns:bx="https://boxy-svg.com" viewBox="-0.02 -0.02 1585.73 500.03">
  <text style="fill: rgb(153, 162, 143); font-family: &quot;Fontin SmallCaps&quot;; font-size: 296px; white-space: pre;" x="557.253" y="338.244" bx:origin="-0.54209 -0.229763">Zhetapi</text>
  <g transform="matrix(0.390459, 0, 0, 0.476505, -775.6875, -68.468315)">
    <path style="stroke: none; fill: rgb(101, 109, 92);" d="M 2839.6 143.689 C 2852.84 149.502 2851.969 151.647 2855.619 158.689 C 2862.753 172.45 2865.057 188.569 2871.89 202.689 C 2876.16 211.521 2883.56 219.313 2889.9 226.689 C 2896.67 234.567 2904.23 240.11 2912.6 245.984 C 2915.14 247.766 2920.71 250.561 2921.42 253.905 C 2922.63 259.57 2905.72 258.765 2902.6 258.613 C 2883.12 257.663 2865.068 252.798 2849.6 240.315 C 2828.594 223.362 2823.957 183.776 2792.6 183.689 L 2792.6 184.689 C 2809.523 185.476 2809.898 204.146 2813.819 216.689 C 2816.987 226.821 2823.245 238.438 2830.129 246.519 C 2841.704 260.106 2854.684 267.534 2869.6 276.381 C 2872.88 278.329 2884.3 281.233 2884.26 285.794 C 2884.19 292.443 2872.18 300.103 2868.176 304.69 C 2852.112 323.092 2836.656 341.109 2821.973 360.689 C 2787.809 406.249 2768.075 462.996 2763.6 519.689 C 2742.888 511.85 2723.944 493.034 2708.6 477.689 C 2655.868 424.953 2614.102 332.15 2640.464 257.689 C 2647.825 236.899 2661.858 219.775 2677.6 204.728 C 2684.723 197.92 2692.835 191.832 2701.6 183.689 C 2649.8 174.072 2592.438 179.955 2540.6 186.404 C 2367.11 207.99 2206.005 292.46 2093.165 426.693 C 2061.71 464.111 2032.924 504.707 2009.521 547.689 C 2002.189 561.153 1999.312 567.567 1986.6 592.689 C 2011.882 582.317 2034.642 578.128 2061.6 583.689 C 2066.262 572.867 2095.903 527.335 2101.818 518.778 C 2104.298 515.19 2128.663 483.259 2136.885 473.689 C 2156.486 450.877 2177.245 428.982 2199.6 408.858 C 2266.007 349.077 2343.197 302.301 2426.6 270.312 C 2471.229 253.195 2516.898 241.756 2563.6 231.9 C 2574.661 229.565 2585.269 227.535 2596.527 226.481 C 2600.896 226.071 2608.992 224.236 2611.285 228.826 C 2612.211 230.68 2612.934 232.049 2604.245 243.447 C 2598.6 250.852 2593.243 258.03 2588.024 265.778 C 2583.719 272.172 2569.771 304.469 2567.811 313.689 C 2564.617 328.709 2564.956 344.554 2567.34 359.689 C 2578.057 427.741 2635.812 493.304 2694.77 524.802 C 2714.755 535.48 2738.67 546.816 2761.6 548.689 C 2761.6 548.689 2716.176 544.292 2694.6 532.908 C 2642.381 505.355 2598.666 458.804 2574.74 404.689 C 2562.95 378.023 2555.075 350.038 2558.889 320.689 C 2561.675 299.256 2570.401 279.505 2582.485 261.689 C 2588.712 252.509 2596.332 244.063 2603.6 233.689 C 2581.759 233.87 2558.833 239.549 2537.6 244.265 C 2498.668 252.911 2460.762 264.438 2423.6 278.878 C 2245.188 348.202 2103.59 486.767 2030.589 663.689 C 2015.022 701.418 1996.593 744.108 1990.6 784.689 C 2013.649 771.502 2025.371 762.465 2047.6 760.775 C 2090.035 757.55 2110.524 788.451 2127.024 822.689 C 2147.205 864.564 2163.915 908.038 2182.319 950.689 C 2189.902 968.262 2201.04 989.855 2212.6 1006.689 C 2213.822 978.229 2219.07 931.642 2249.6 919.164 C 2272.986 909.607 2302.894 925 2322.6 936.893 C 2374.112 967.981 2418.741 1008.851 2467.6 1043.689 C 2489.944 1059.619 2518.295 1075.673 2541.6 1086.689 C 2526.106 1064.689 2504.479 1046.869 2485.999 1025.689 C 2446.312 980.202 2418.215 926.542 2397.908 869.689 C 2391.635 852.126 2384.586 834.894 2377.41 817.689 C 2375.695 813.577 2369.122 804.241 2372.962 800.338 C 2383.284 789.846 2409.925 788.689 2423.6 788.689 C 2475.347 788.689 2523.003 815.673 2561.604 848.124 C 2574.085 858.617 2587.02 876.89 2601.6 883.689 C 2603.91 829.876 2655 786.595 2708.6 796.153 C 2737.172 801.247 2761.471 821.887 2775.6 846.689 C 2781.026 844.159 2789.953 831.632 2796.39 833.227 C 2799.553 834.011 2801.297 839.15 2802.681 841.689 C 2806.983 849.583 2811.875 857.08 2816.65 864.689 C 2831.155 887.804 2851.438 907.424 2873.6 923.262 C 2906.9 947.062 2946.26 960.684 2986.6 966.403 C 3031.27 972.737 3077.86 970.203 3121.6 982.549 C 3149.24 990.348 3193.52 1010.089 3180.58 1046.689 C 3168.87 1079.829 3125.8 1099.379 3096.6 1113.939 C 3037.16 1143.579 2968.26 1158.509 2902.6 1164.859 C 2870.48 1167.969 2836.826 1170.079 2804.6 1166.859 C 2775.031 1163.899 2758.087 1161.706 2740.736 1154.989 C 2724.176 1148.578 2698.617 1143.277 2698.657 1119.414 C 2698.694 1097.334 2715.675 1082.234 2761.912 1071.962 C 2802.505 1062.944 2843.849 1066.455 2852.965 1066.562 C 2870.292 1066.772 2925.773 1079.427 2942.351 1083.621 C 2981.322 1093.481 2988.376 1099.662 3019.801 1111.112 C 3019.801 1111.112 2947.776 1062.972 2911.801 1040.642 C 2891.952 1028.322 2872.868 1011.462 2850.801 1003.112 L 2875.801 1039.112 C 2864.287 1037.655 2816.408 1033.848 2771.865 1040.893 C 2731.041 1047.35 2700.261 1059.273 2683.6 1070.759 C 2650.359 1093.676 2645.481 1132.329 2676.6 1158.369 C 2690.396 1169.909 2707.468 1176.599 2724.6 1181.399 C 2783.579 1197.909 2847.413 1193.609 2907.6 1187.859 C 2993 1179.689 3079.28 1164.599 3158.6 1130.539 C 3212.02 1107.599 3291.16 1063.339 3260.16 993.689 C 3252.38 976.204 3235.24 961.929 3219.6 951.755 C 3179.79 925.863 3134.02 919.795 3090.6 903.265 C 2984.27 862.781 2881.395 760.313 2868.98 663.536 C 2882.65 675.356 2887.7 686.166 2903.6 695.26 C 2922.91 706.308 2947.32 712.857 2968.6 719.113 C 2981.26 722.837 2994.825 729.412 3007.6 729.689 C 3021.596 727.673 3004.1 645.831 2997.52 605.689 C 2996.33 598.418 2990.85 568.632 3005.6 570.57 C 3016.4 571.99 3024.84 588.615 3027.46 597.689 C 3028.96 602.885 3029.6 609.941 3034.6 612.689 C 3038.35 603.796 3039.7 580.606 3033.18 572.794 C 3025.16 563.174 3012.11 562.819 3010.31 547.689 C 3007.04 520.176 3042.23 517.325 3059.6 528.157 C 3068.35 533.617 3069.84 545.958 3077.6 550.689 C 3077.6 525.819 3059.08 501.876 3031.6 507.15 C 3019.52 509.467 3004.82 527.21 2994.11 512.67 C 2982.3 496.633 3003.27 470.886 3019.6 468.018 C 3035.52 465.222 3045.44 476.084 3057.6 483.689 C 3044.25 451.624 2995.45 443.586 2979.01 478.689 C 2972.3 493.036 2974.6 515.147 2974.6 530.689 C 2974.6 562.167 2971.61 591.7 2966.02 622.689 C 2964.12 633.263 2963.78 648.154 2958.18 657.526 C 2955.45 662.095 2949.96 658.608 2946.6 656.674 C 2937.59 651.492 2931.14 644.794 2923.6 637.778 C 2914.27 629.099 2903.16 622.571 2894.93 612.689 C 2878.52 593.008 2872.23 568.287 2867.6 543.689 L 2868.6 543.689 C 2880.24 586.231 2906.9 635.711 2955.6 639.689 C 2957.14 627.726 2959.73 615.555 2961.81 603.689 C 2962.6 599.22 2965.57 592.286 2963.96 587.863 C 2962.17 582.939 2953.83 578.482 2949.6 575.779 C 2936.07 567.125 2922.66 560.681 2910.61 549.519 C 2874.33 515.906 2866.936 462.6 2883.3 417.689 C 2893.75 388.985 2912.69 363.526 2933.56 341.689 C 2940.65 334.275 2950.565 320.923 2959.695 315.694 C 2966.315 311.903 2968.75 318.52 2975.6 316.33 C 2991.3 311.315 3006.3 303.809 3021.6 297.689 C 3036.27 291.821 3051.08 286.211 3065.6 279.97 C 3071.57 277.401 3079.44 275.705 3084.26 271.157 C 3088.9 266.773 3090.18 258.788 3089.41 252.69 C 3087.67 238.762 3067.78 248.45 3058.6 248.674 C 3044.36 249.022 3032.31 243.066 3018.6 241.103 C 3011.17 240.039 3005.03 242.56 2997.6 239.53 C 2985.36 234.542 2974.71 225.347 2962.6 220.689 C 2963.46 223.985 2968.05 232.286 2966.44 235.216 C 2964.52 238.701 2958.34 235.796 2955.6 235.2 C 2944.91 232.871 2932.43 228.842 2922.6 223.854 C 2908.71 216.808 2893.95 202.912 2885.87 189.689 C 2874.03 170.331 2866.952 145.093 2839.6 143.689 Z"/>
    <path style="stroke: none; fill: rgb(101, 109, 92);" d="M 2981.6 462.689 C 2990.02 457.189 2997.49 455.053 3007.6 452.948 C 3013.09 451.804 3018.795 452.379 3024.015 450.837 C 3029.915 449.095 3035.36 442.618 3041.6 441.189 C 3058.78 437.253 3076.35 445.191 3083.6 461.689 L 3085.6 461.689 C 3088.15 451.578 3080.14 440.766 3072.69 434.845 C 3056.04 421.611 3033.366 424.698 3014.185 440.873 C 3005.12 445.442 3002.96 445.251 2998.7 442.035 C 2981.57 429.086 2996.75 400.556 3011.6 392.739 C 3026.57 384.857 3040.1 394.04 3053.6 399.689 C 3035.94 369.133 2992.25 374.503 2977.86 404.689 C 2970.03 421.114 2978.29 445.645 2981.6 462.689 Z"/>
    <path style="stroke: none; fill: rgb(101, 109, 92);" d="M 3047.335 501.779 C 3043.225 487.939 3033.74 484.831 3025.11 473.509 C 3014.88 476.847 3003.72 485.583 2999.51 495.689 C 2997.65 500.18 2997.02 509.1 3003.62 509.969 C 3014.42 511.389 3009.861 499.134 3017.45 495.336 C 3031.111 488.499 3026.055 490.049 3030.015 490.957 C 3036.725 492.495 3040.345 500.876 3047.335 501.779 Z"/>
    <path style="stroke: none; fill: rgb(101, 109, 92);" d="M 3019.6 535.689 C 3015.49 545.688 3019.82 555.376 3029.6 559.689 L 3019.6 535.689 Z"/>
    <path style="stroke: none; fill: rgb(101, 109, 92);" d="M 3006.6 579.689 C 2999.19 593.206 3006.33 616.269 3008.99 630.69 C 3009.72 634.67 3009.32 643.888 3012.39 646.701 C 3018.33 652.145 3035.95 650.075 3043.6 650.975 C 3046.5 651.316 3051.18 652.759 3052.85 649.371 C 3057.84 639.279 3047.54 618.427 3046.6 607.689 L 3045.6 607.689 C 3044.32 617.03 3033.66 624.88 3026.02 616.384 C 3016.41 605.697 3019.51 589.6 3006.6 579.689 Z"/>
    <path style="stroke: none; fill: rgb(255, 255, 255);" d="M 3011.57 254.738 C 2983.854 256.388 3034.692 261.525 3024.52 255.244 C 3022.888 254.236 3013.47 254.885 3011.57 254.738 Z"/>
  </g>
</svg>