# Blender v2.82 (sub 7) OBJ File: ''
# www.blender.org
mtllib platform.mtl
o Cube
v 15.386003 1.000000 -15.133701
v 15.386003 -1.000000 -15.133701
v 15.386003 1.000000 15.133701
v 15.386003 -1.000000 15.133701
v -15.386003 1.000000 -15.133701
v -15.386003 -1.000000 -15.133701
v -15.386003 1.000000 15.133701
v -15.386003 -1.000000 15.133701
v 15.386003 1.000000 -15.133701
v 15.386003 -1.000000 -15.133701
v 15.386003 1.000000 15.133701
v 15.386003 -1.000000 15.133701
v -15.386003 1.000000 -15.133701
v -15.386003 -1.000000 -15.133701
v -15.386003 1.000000 15.133701
v -15.386003 -1.000000 15.133701
v -1.022006 1.838615 -32.020592
v 15.386003 1.000000 -15.133701
v 15.386003 -1.000000 -15.133701
v 15.386003 1.000000 15.133701
v 15.386003 -1.000000 15.133701
vt 0.625000 0.500000
vt 0.625000 0.750000
vt 0.875000 0.750000
vt 0.875000 0.500000
vt 0.375000 0.750000
vt 0.375000 1.000000
vt 0.625000 1.000000
vt 0.375000 0.000000
vt 0.375000 0.250000
vt 0.625000 0.250000
vt 0.625000 0.000000
vt 0.125000 0.500000
vt 0.125000 0.750000
vt 0.375000 0.500000
vt 0.625000 0.500000
vt 0.875000 0.500000
vt 0.875000 0.750000
vt 0.625000 0.750000
vt 0.375000 0.750000
vt 0.625000 1.000000
vt 0.375000 1.000000
vt 0.375000 0.000000
vt 0.625000 0.000000
vt 0.625000 0.250000
vt 0.375000 0.250000
vt 0.125000 0.500000
vt 0.375000 0.500000
vt 0.125000 0.750000
vt 0.375000 0.750000
vt 0.625000 0.750000
vt 0.375000 0.500000
vt 0.625000 0.500000
vn 0.0000 -1.0000 0.0000
vn 0.0000 0.0000 -1.0000
vn 1.0000 0.0000 0.0000
vn 0.0000 1.0000 0.0000
vn -1.0000 0.0000 0.0000
vn 0.0000 0.0000 1.0000
usemtl Material
s off
f 1/1/1 3/2/1 7/3/1 5/4/1
f 4/5/2 8/6/2 7/7/2 3/2/2
f 8/8/3 6/9/3 5/10/3 7/11/3
f 6/12/4 8/13/4 4/5/4 2/14/4
f 2/14/5 4/5/5 3/2/5 1/1/5
f 6/9/6 2/14/6 1/1/6 5/10/6
f 9/15/4 13/16/4 15/17/4 11/18/4
f 12/19/6 11/18/6 15/20/6 16/21/6
f 16/22/5 15/23/5 13/24/5 14/25/5
f 14/26/1 10/27/1 12/19/1 16/28/1
f 11/18/6 12/19/6 21/29/6 20/30/6
f 14/25/2 13/24/2 9/15/2 10/27/2
f 19/31/3 18/32/3 20/30/3 21/29/3
f 10/27/6 9/15/6 18/32/6 19/31/6
f 12/19/6 10/27/6 19/31/6 21/29/6
f 9/15/6 11/18/6 20/30/6 18/32/6
